<?xml version="1.0" encoding="utf-8"?>
<!-- Generator: Adobe Illustrator 24.3.0, SVG Export Plug-In . SVG Version: 6.00 Build 0)  -->
<svg version="1.1" id="Calque_1" xmlns="http://www.w3.org/2000/svg" xmlns:xlink="http://www.w3.org/1999/xlink" x="0px" y="0px"
	 viewBox="0 0 1920 900" style="enable-background:new 0 0 1920 900;" xml:space="preserve">
<style type="text/css">
	.st0{fill:url(#SVGID_1_);}
	.st1{fill:#FFFFFF;stroke:#000000;stroke-miterlimit:10;}
	.st2{fill:url(#SVGID_2_);}
	.st3{fill:url(#SVGID_3_);}
	.st4{fill:url(#SVGID_4_);stroke:url(#SVGID_5_);stroke-miterlimit:10;}
	.st5{fill:#C984F7;}
	.st6{fill:#42C3FF;}
</style>
<linearGradient id="SVGID_1_" gradientUnits="userSpaceOnUse" x1="164.0229" y1="302.55" x2="1352.7014" y2="302.55">
	<stop  offset="0" style="stop-color:#DF8BEE"/>
	<stop  offset="0.3573" style="stop-color:#DC8AEF"/>
	<stop  offset="0.6285" style="stop-color:#D287F3"/>
	<stop  offset="0.8706" style="stop-color:#C281F9"/>
	<stop  offset="1" style="stop-color:#B67DFE"/>
</linearGradient>
<path class="st0" d="M164,290.5c0-47,359.1-169.4,469.4-125.6c75.6,30-83.3-19,0,0c94.7,21.6,146,129.2,207.5,108.6
	c121.6-40.8,135.2-39.2,202.4-35.7c102.3,5.3,330.2,80.3,307.8,139.5C1292.9,531.5,164.1,408.6,164,290.5z"/>
<path class="st1" d="M329.2,703.8"/>
<linearGradient id="SVGID_2_" gradientUnits="userSpaceOnUse" x1="41.6685" y1="284.6744" x2="41.6685" y2="284.6744" gradientTransform="matrix(1 0 0 -1 0 902)">
	<stop  offset="0" style="stop-color:#FFFFFF"/>
	<stop  offset="1.136364e-02" style="stop-color:#00FFFF;stop-opacity:0.6"/>
	<stop  offset="1" style="stop-color:#E782FF"/>
</linearGradient>
<path class="st2" d="M41.7,617.3"/>
<g>
	<g>
		
			<linearGradient id="SVGID_3_" gradientUnits="userSpaceOnUse" x1="50.8967" y1="61.6744" x2="53.7946" y2="61.6744" gradientTransform="matrix(1 0 0 -1 0 902)">
			<stop  offset="0" style="stop-color:#FFFFFF"/>
			<stop  offset="1.136364e-02" style="stop-color:#00FFFF;stop-opacity:0.6"/>
			<stop  offset="1" style="stop-color:#E782FF"/>
		</linearGradient>
		<path class="st3" d="M52.4,841.8c1.9,0,1.9-3,0-3C50.4,838.8,50.4,841.8,52.4,841.8L52.4,841.8z"/>
	</g>
</g>
<linearGradient id="SVGID_4_" gradientUnits="userSpaceOnUse" x1="-285.8315" y1="-58.8256" x2="-285.8315" y2="-58.8256" gradientTransform="matrix(1 0 0 -1 0 902)">
	<stop  offset="0" style="stop-color:#FFFFFF"/>
	<stop  offset="1.136364e-02" style="stop-color:#00FFFF;stop-opacity:0.6"/>
	<stop  offset="1" style="stop-color:#E782FF"/>
</linearGradient>
<linearGradient id="SVGID_5_" gradientUnits="userSpaceOnUse" x1="-285.8315" y1="-58.8256" x2="-285.8315" y2="-58.8256" gradientTransform="matrix(1 0 0 -1 0 902)">
	<stop  offset="0" style="stop-color:#FFFFFF"/>
	<stop  offset="1.136364e-02" style="stop-color:#00FFFF;stop-opacity:0.6"/>
	<stop  offset="1" style="stop-color:#E782FF"/>
</linearGradient>
<path class="st4" d="M-285.8,960.8"/>
<path class="st5" d="M1912.6,895.5c3.1-2.3,6.4-4.4,9.8-6.1c0.7-2.7,1.6-5.4,2.6-8c-1.9-10.7-2.7-21.5-3.3-32.3
	c-1.1-20.2-1.6-40.6-1.4-60.9c0.2-25.2,1.5-50.4,1.5-75.5c0-25.4-1-50.8,0-76.1c0.3-7.1,1.7-14,4.1-20.6c0.2-0.4,0.2-0.9,0.1-1.3
	c-1.7-8.2-2-16.7-0.8-25.5c0-0.1,0-0.2,0-0.3c0-21-0.5-42-1-62.9c-1.1-36.7-2.3-73.5-2.4-110.2c0-0.1,0-0.2,0-0.3
	c0.1-0.8,0.2-1.5,0.3-2.3c0-0.1,0-0.3,0-0.4c-0.1-3.9-0.2-7.8-0.3-11.7c0-0.1,0-0.2,0-0.3c0.6-9.2,2.8-17.8,6.5-25.8
	c0.3-0.6,0.3-1.3,0.1-1.9c-1.5-4.6-2.8-9.4-3.6-14.4c0-0.1,0-0.3,0-0.4l-0.7-25.3c0-0.1,0-0.2,0-0.3c0.4-6.2,1.6-12.2,3.4-17.9
	c0.2-0.5,0.2-1,0-1.5c-1.1-3.7-2-7.5-2.7-11.4c0-0.1,0-0.3,0-0.4l-0.7-25.3c0-0.1,0-0.2,0-0.3c0.2-2.6,0.5-5.2,0.9-7.7
	c0.1-0.3,0-0.6,0-0.9c-1.9-8.5-2.2-17.2-0.9-26.2c0-0.1,0-0.2,0-0.3c0-5.8,0.2-11.5,0.4-17.3c0-0.3,0-0.6-0.1-0.9
	c-3.5-10.4-6.5-21-7.5-32c-1.3-8.3-1.6-16.5-0.8-24.5c0.1-1.5-1.1-2.8-2.6-2.8c-47.8,1.5-90.4,6-123.5,9.3
	c-465.1,46.3-648.8,270.4-981.9,253.8C395.8,405.6,246.9,71.1-2,150.4c-1.2,0.4-2,1.6-1.7,2.9c0,0,0,0,0,0c0,0.1,0,0.3,0,0.4
	c0.1,2.9,0.2,5.8,0.3,8.7c0,0.1,0,0.3,0.1,0.4c0.3,1.3,0.6,2.7,0.8,4c0,0.1,0,0.3,0,0.4c0.2,8.4,0.5,16.8,0.7,25.3
	c0,0.1,0,0.2,0,0.3c-0.1,1.3-0.2,2.6-0.4,3.9c0,0.1,0,0.2,0,0.4l0.4,13.6c0,0.1,0,0.2,0,0.3c-0.3,3.6-0.7,7.2-1.5,10.6
	c0,2.6,0.1,5,0.1,7.6c0.7,2.6,1.3,5.3,1.7,8c0,0.1,0,0.3,0,0.4c0.2,8.4,0.5,16.8,0.7,25.3c0,0.1,0,0.2,0,0.3
	c-0.3,5.1-1.2,10-2.5,14.7c-0.1,0.4-0.1,0.9,0,1.3c0.7,2.6,1.3,5.3,1.7,8c0,0.1,0,0.3,0,0.4c0.2,8.4,0.5,16.8,0.7,25.3
	c0,0.1,0,0.2,0,0.3c-0.3,3.8-0.8,7.4-1.6,11c0,0.2-0.1,0.4-0.1,0.6c0.2,5.5,0.3,11,0.5,16.5c0,0.1,0,0.2,0,0.3
	c-0.2,3-0.6,5.9-1.1,8.8c-0.1,0.3-0.1,0.6,0,0.9c0.1,0.6,0.2,1.2,0.3,1.8c0,0.1,0,0.3,0,0.4c0.2,8.4,0.5,16.8,0.7,25.3
	c0,0.1,0,0.2,0,0.3c-0.3,4.3-1,8.5-1.9,12.6c-0.1,0.4-0.1,0.8,0,1.3c0.9,3.3,1.7,6.6,2.3,10.1c0,0.1,0,0.3,0,0.4
	c0.2,7.3,0.4,14.6,0.6,21.9c0,0.1,0,0.3,0,0.4c0.1,0.7,0.3,1.5,0.4,2.2c0,0.1,0,0.3,0,0.4c0.2,8.4,0.5,16.8,0.7,25.3
	c0,0.1,0,0.2,0,0.3c-0.3,5-1.1,9.8-2.4,14.4c-0.1,0.4-0.1,0.9,0,1.4c1.1,3.8,2,7.6,2.7,11.6c0,0.1,0,0.3,0,0.4
	c0.2,8.4,0.5,16.8,0.7,25.3c0,0.1,0,0.2,0,0.3c-0.6,8.8-2.6,17-6,24.7c-0.2,0.5-0.3,1-0.2,1.6c0.5,2.3,1,4.6,1.4,6.9
	c2,11.4,1.4,23.4,1.6,34.8c0.1,3.8-0.1,7.7-0.4,11.5c-0.9,11.5-3.2,22.9-4.1,34.4c0,0.2,0,0.3,0,0.5c0.4,3.7,0.8,7.3,1.3,11
	c2,17.1,2.7,33.7,3,51c0.2,15-0.7,30.1-0.9,45.1c0,0.1,0,0.2,0,0.2c0.7,9.1,1.6,18.1,2.1,27.2c1.2,21.2,1.7,42.4,2,63.6
	c0.4,26.9-0.3,53.9-0.9,80.8c0,0.5,0,1.1-0.1,1.6c0.8-0.2,1.6-0.4,2.3-0.5c11.9-4.8,24.4-6.2,37.5-4.3h4.5
	c6.8,0.7,13.3,2.1,19.6,4.2c9.8-2.8,19.9-3.4,30.3-1.9c3.4,0.4,6.7,0.9,10,1.6c4.9-0.3,9.9-0.1,14.9,0.7c4.1,0.4,8.1,1.1,12,2
	c4.9-0.6,10-0.7,15.1-0.3c9.6-2.6,19.4-3.2,29.7-1.7c4.1,0.4,8,1.1,11.9,2c6.5-0.8,13.1-0.7,19.8,0.2c1.1,0.1,2.2,0.3,3.3,0.4
	c7.8-1.4,15.8-1.6,24-0.4c2.8,0.3,5.5,0.7,8.2,1.2c3.8-0.7,7.6-1.4,11.5-2c31.9-5.1,64.9-5.2,97.1-2.3c3.1,0.3,6.1,0.6,9.2,0.9
	c3.2-0.8,6.4-1.4,9.5-1.6c43.5-2.9,86.8-2.1,130.3,0.5c31.7,1.9,63.4,3.5,95.2,3.2c9-0.1,18-0.3,27-0.5c0.8,0,1.6,0,2.4-0.1
	c23-0.5,46.1-1.2,69.1-1.4c32.5-0.2,64.6,2.4,96.9,4c28.8,1.4,57.6,1.4,86.4,0.7c76.9-2.7,153.8-8.7,230.8-7
	c66.6,1.5,133,9.7,199.7,9.3c19-1.1,37.6-3.4,56.6-5.8c29.5-3.8,59.8-3.5,89.4-1.4c19.4,1.3,38.7,3.3,58.1,4.1
	c21.7,0.9,43.4,0.3,65.1-0.1c42.5-0.8,85-1.7,127.5-1.7c64,0,128,0.3,192,2.3C1901.8,901.9,1906.9,898.4,1912.6,895.5z"/>
<path class="st6" d="M-204.3,1466.3"/>
</svg>
