<?xml version="1.0" encoding="utf-8"?>
<!-- Generator: Adobe Illustrator 24.3.0, SVG Export Plug-In . SVG Version: 6.00 Build 0)  -->
<svg version="1.1" id="Calque_1" xmlns="http://www.w3.org/2000/svg" xmlns:xlink="http://www.w3.org/1999/xlink" x="0px" y="0px"
	 viewBox="0 0 1920 1080" style="enable-background:new 0 0 1920 1080;" xml:space="preserve">
<style type="text/css">
	.st0{fill:url(#SVGID_1_);}
	.st1{fill:#FFFFFF;stroke:#000000;stroke-miterlimit:10;}
	.st2{fill:url(#SVGID_2_);}
	.st3{fill:url(#SVGID_3_);}
	.st4{fill:url(#SVGID_4_);stroke:url(#SVGID_5_);stroke-miterlimit:10;}
	.st5{fill:#C984F7;}
	.st6{fill:#42C3FF;}
</style>
<linearGradient id="SVGID_1_" gradientUnits="userSpaceOnUse" x1="90.1417" y1="836.7913" x2="1278.8203" y2="836.7913">
	<stop  offset="0" style="stop-color:#DF8BEE"/>
	<stop  offset="0.3573" style="stop-color:#DC8AEF"/>
	<stop  offset="0.6285" style="stop-color:#D287F3"/>
	<stop  offset="0.8706" style="stop-color:#C281F9"/>
	<stop  offset="1" style="stop-color:#B67DFE"/>
</linearGradient>
<path class="st0" d="M90.1,824.7c0-47,359.1-169.4,469.4-125.6c75.6,30-83.3-19,0,0c94.7,21.6,146,129.2,207.5,108.6
	c121.6-40.8,135.2-39.2,202.4-35.7c102.3,5.3,330.2,80.3,307.8,139.5C1219,1065.7,90.2,942.9,90.1,824.7z"/>
<path class="st1" d="M268.5,598.5"/>
<linearGradient id="SVGID_2_" gradientUnits="userSpaceOnUse" x1="-19" y1="568" x2="-19" y2="568" gradientTransform="matrix(1 0 0 -1 0 1080)">
	<stop  offset="0" style="stop-color:#FFFFFF"/>
	<stop  offset="1.136364e-02" style="stop-color:#00FFFF;stop-opacity:0.6"/>
	<stop  offset="1" style="stop-color:#E782FF"/>
</linearGradient>
<path class="st2" d="M-19,512"/>
<g>
	<g>
		
			<linearGradient id="SVGID_3_" gradientUnits="userSpaceOnUse" x1="-9.7718" y1="345" x2="-6.8739" y2="345" gradientTransform="matrix(1 0 0 -1 0 1080)">
			<stop  offset="0" style="stop-color:#FFFFFF"/>
			<stop  offset="1.136364e-02" style="stop-color:#00FFFF;stop-opacity:0.6"/>
			<stop  offset="1" style="stop-color:#E782FF"/>
		</linearGradient>
		<path class="st3" d="M-8.3,736.5c1.9,0,1.9-3,0-3C-10.3,733.5-10.3,736.5-8.3,736.5L-8.3,736.5z"/>
	</g>
</g>
<linearGradient id="SVGID_4_" gradientUnits="userSpaceOnUse" x1="-346.5" y1="224.5" x2="-346.5" y2="224.5" gradientTransform="matrix(1 0 0 -1 0 1080)">
	<stop  offset="0" style="stop-color:#FFFFFF"/>
	<stop  offset="1.136364e-02" style="stop-color:#00FFFF;stop-opacity:0.6"/>
	<stop  offset="1" style="stop-color:#E782FF"/>
</linearGradient>
<linearGradient id="SVGID_5_" gradientUnits="userSpaceOnUse" x1="-346.5" y1="224.5" x2="-346.5" y2="224.5" gradientTransform="matrix(1 0 0 -1 0 1080)">
	<stop  offset="0" style="stop-color:#FFFFFF"/>
	<stop  offset="1.136364e-02" style="stop-color:#00FFFF;stop-opacity:0.6"/>
	<stop  offset="1" style="stop-color:#E782FF"/>
</linearGradient>
<path class="st4" d="M-346.5,855.5"/>
<path class="st5" d="M-186.3,666.6C80.2,551.1,224.4,910.4,652.1,931.8C985.2,948.4,1168.9,724.3,1634,678
	c146.1-14.6,476.4-52.9,624.5,251c51.5,105.6,65.7,264.2,14.3,393.5c-198.3,498.5-1276,312.5-2050,179
	c-468.3-80.8-652.1-162.9-690.5-320.1C-510.7,1005.5-368.9,745.9-186.3,666.6z"/>
<path class="st6" d="M-265,1361"/>
<path class="st5" d="M-98.9,903"/>
</svg>
